<?xml version="1.0" standalone="no"?>
<!DOCTYPE svg PUBLIC "-//W3C//DTD SVG 20010904//EN"
 "http://www.w3.org/TR/2001/REC-SVG-20010904/DTD/svg10.dtd">
<svg version="1.0" xmlns="http://www.w3.org/2000/svg"
 width="546.000000pt" height="546.000000pt" viewBox="0 0 546.000000 546.000000"
 preserveAspectRatio="xMidYMid meet">
<metadata>
Created by potrace 1.14, written by Peter Selinger 2001-2017
</metadata>
<g transform="translate(0.000000,546.000000) scale(0.100000,-0.100000)"
fill="#000000" stroke="none">
<path d="M1302 5268 c-11 -18 -29 -49 -40 -68 -11 -19 -43 -75 -72 -125 -29
-49 -85 -146 -125 -215 -40 -69 -132 -228 -205 -355 -73 -126 -165 -286 -205
-355 -40 -69 -114 -197 -165 -285 -51 -88 -142 -245 -202 -350 -60 -104 -114
-197 -119 -205 -5 -8 -45 -77 -89 -154 l-80 -139 37 -66 c20 -36 44 -79 54
-96 9 -16 76 -136 149 -265 73 -129 141 -248 150 -265 23 -39 219 -386 252
-445 14 -25 135 -238 268 -475 134 -236 255 -451 269 -477 14 -25 116 -206
226 -401 l200 -354 3 376 2 376 -306 550 c-168 303 -322 579 -342 615 -19 36
-67 121 -105 190 -38 69 -82 148 -97 175 -15 28 -59 106 -97 175 -39 69 -87
157 -108 195 -21 39 -50 90 -65 115 -44 76 -45 71 34 208 41 70 83 143 94 162
11 19 52 91 92 160 41 69 89 152 107 185 19 33 38 67 43 75 10 15 133 226 154
265 10 18 185 321 229 398 11 18 82 141 159 275 l140 242 72 0 c84 1 1973 1
2061 0 l61 0 31 -52 c32 -53 931 -1597 963 -1653 39 -68 193 -330 197 -334 4
-6 443 -5 447 0 2 2 -147 261 -331 574 -183 314 -369 631 -412 705 -43 74
-140 241 -216 370 -76 129 -146 250 -156 268 -48 83 -59 102 -104 177 -26 44
-57 96 -67 115 -11 19 -45 77 -75 128 l-55 92 -1318 0 -1318 0 -20 -32z"/>
<path d="M1786 2680 c-2 -3 -2 -570 -2 -1260 l1 -1255 768 -1 767 -1 0 152 0
152 -562 1 c-310 0 -573 1 -585 1 l-21 1 0 425 c0 234 3 426 7 426 3 1 237 2
520 3 475 1 514 2 520 18 5 14 6 224 2 273 -1 7 -174 10 -513 9 -282 0 -518 1
-525 4 -9 3 -12 94 -12 378 l1 374 584 0 585 0 -3 153 -3 152 -763 0 c-420 0
-765 -2 -766 -5z"/>
<path d="M3494 2681 c-2 -2 -4 -571 -4 -1263 l0 -1258 185 0 185 0 0 463 1
462 60 65 c34 36 82 87 107 113 l45 49 21 -25 c12 -14 33 -40 48 -58 85 -108
250 -316 261 -329 7 -8 111 -139 232 -290 120 -151 224 -280 230 -286 6 -6 37
-45 69 -88 l59 -76 234 0 234 0 -38 48 c-21 26 -58 72 -83 103 -25 30 -59 73
-76 95 -18 21 -229 287 -471 589 -241 303 -442 555 -446 562 -4 7 30 51 85
110 50 54 144 154 209 223 64 69 131 141 149 160 40 43 244 262 285 306 17 17
77 82 135 144 58 62 120 128 137 147 26 26 29 33 15 34 -9 0 -111 1 -226 1
l-209 1 -76 -79 c-42 -44 -126 -133 -187 -199 -165 -177 -160 -173 -278 -299
-60 -64 -117 -125 -126 -136 -9 -10 -72 -78 -141 -151 -68 -73 -128 -137 -134
-143 -5 -7 -36 -39 -67 -73 l-58 -62 0 572 0 572 -181 0 c-99 0 -183 -2 -185
-4z"/>
</g>
</svg>
